<svg xmlns="http://www.w3.org/2000/svg" viewBox="0 0 585.13 442.7">
	<defs>
		<style>
			.cls-1{fill:#3fb86b;}
			.cls-2{fill:#2f4054;}
			.cls-3{fill:#fff;}
			.cls-4{fill:#c3cad2;}
		</style>
	</defs>
	<g>
		<g>
			<polygon class="cls-1" points="583.97 233.23 435.04 96.59 413.96 119.55 537.86 233.23 583.97 233.23"/>
			<polygon class="cls-1" points="47.27 233.23 171.17 119.55 150.09 96.59 1.17 233.23 47.27 233.23"/>
			<circle class="cls-2" cx="291.47" cy="221.35" r="221.35"/>
			<path class="cls-3" d="M293.62,417.81C184,417.81,94.76,328.59,94.76,218.94A198.55,198.55,0,0,1,245,26.07a38.74,38.74,0,0,1,18.88,75.14A121.41,121.41,0,1,0,411.74,247.05a38.74,38.74,0,1,1,75.4,17.86A198.1,198.1,0,0,1,293.62,417.81Z"/><path class="cls-4" d="M307.83,63.26a53.87,53.87,0,0,1-11,32.66A120.81,120.81,0,0,1,356.94,113a38.74,38.74,0,0,0,39.78-66.49A198.27,198.27,0,0,0,284.36,18.62,54.16,54.16,0,0,1,307.83,63.26Z"/><path class="cls-4" d="M252.08,178.1H192.34A153.57,153.57,0,0,0,193.47,257h58.61c22.14,0,40.25-17.11,40.25-38v-2.9C292.33,195.21,274.22,178.1,252.08,178.1Z"/><path class="cls-4" d="M93.55,296.5V402c0,22.14,17.1,40.25,38,40.25h2.9c20.91,0,38-18.11,38-40.25v-8A195.18,195.18,0,0,1,93.55,296.5Z"/><path class="cls-1" d="M585,234.21l-1.07-1H537.86l1.1,1H46.17l1.1-1H1.17l-1.08,1,0,0H0V325c0,41,39.47,74.38,88,74.38h92.53c48.52,0,88-33.36,88-74.38V265.39h48V325c0,41,39.48,74.38,88,74.38h92.54c48.53,0,88-33.36,88-74.38V234.23H585Z"/>
		</g>
	</g>
</svg>
